<svg width="50" height="50" viewBox="0 0 50 50" fill="none" xmlns="http://www.w3.org/2000/svg">
<path d="M49.6956 41.1736C44.8755 36.9636 42.4324 31.9809 42.4324 26.3636V18.1873C42.4769 11.9536 37.7075 7.81909 33.6094 6.17273C32.4459 5.7074 31.2361 5.33735 29.9953 5.06727V4.54545C29.9953 2.03909 27.6753 0 24.8236 0C21.9719 0 19.6518 2.03909 19.6518 4.54545V5.14636C18.5359 5.40991 17.4473 5.75599 16.3977 6.18091C11.8683 8.01545 7.27993 12.4373 7.23855 18.1818V26.3636C7.23855 32.1709 4.90506 37.1536 0.303225 41.1736C0.169236 41.2915 0.0745971 41.4394 0.0296078 41.6013C-0.0153815 41.7631 -0.00899802 41.9327 0.0480638 42.0916C0.105126 42.2505 0.21068 42.3926 0.353239 42.5024C0.495799 42.6123 0.669902 42.6856 0.856603 42.7145L10.6736 44.2045C12.5024 44.4818 14.1863 44.7091 15.7885 44.8964C17.5945 48.0055 21.1392 50 25.0118 50C28.8855 50 32.4312 48.0036 34.2351 44.8927C35.8311 44.7064 37.5068 44.48 39.3252 44.2036L49.1412 42.7136C49.3282 42.6853 49.5027 42.6124 49.6457 42.5027C49.7887 42.3931 49.8946 42.251 49.9518 42.092C50.0091 41.933 50.0154 41.7632 49.9702 41.6012C49.925 41.4393 49.83 41.2913 49.6956 41.1736ZM21.7195 4.54545C21.7195 3.04182 23.1117 1.81818 24.8225 1.81818C26.5334 1.81818 27.9256 3.04182 27.9256 4.54545V4.71091C25.8663 4.44915 23.7738 4.46356 21.7195 4.75364V4.54545ZM25.0118 48.1818C22.3928 48.1818 19.9456 47.0382 18.3744 45.1682C20.6862 45.3773 22.8438 45.4827 25.0004 45.4827C27.1653 45.4827 29.3302 45.3773 31.6513 45.1655C30.0791 47.0373 27.6308 48.1818 25.0118 48.1818ZM38.9735 42.4118C36.9886 42.7127 35.1692 42.9573 33.4501 43.15H33.4439C32.6867 43.2345 31.9503 43.3082 31.2293 43.3718L31.2066 43.3736C30.5477 43.4318 29.9033 43.4782 29.2661 43.5191L28.9041 43.5409C28.3573 43.5726 27.8101 43.5978 27.2626 43.6164C27.1509 43.62 27.0392 43.6255 26.9274 43.6282C24.9918 43.6856 23.054 43.6568 21.1216 43.5418L20.7358 43.5191C20.1152 43.48 19.4873 43.4336 18.845 43.3782L18.7788 43.3727C18.0447 43.3079 17.3117 43.2346 16.5798 43.1527H16.5705C14.7161 42.9424 12.8672 42.6956 11.0253 42.4127L3.10115 41.2091C7.22097 37.0691 9.30726 32.0836 9.30726 26.3636V18.1873C9.34243 13.2464 13.3288 9.42636 17.2625 7.83182C18.4227 7.36458 19.6349 7.00418 20.8796 6.75636C20.8899 6.75455 20.9013 6.75545 20.9117 6.75364C23.4911 6.24907 26.1627 6.22801 28.752 6.69182C28.7655 6.69455 28.7789 6.68909 28.7924 6.69091C30.1412 6.93818 31.4693 7.31273 32.7488 7.82636C36.5645 9.36 40.3988 13.1545 40.3626 18.1827V26.3645C40.3626 31.8491 42.6124 36.9491 46.8925 41.2109L38.9735 42.4118Z" fill="black"/>
<path d="M31.4598 10.3073C27.4517 8.69732 22.5437 8.6955 18.5625 10.3091C16.2921 11.2291 12.4412 13.921 12.4102 18.1764C12.4094 18.2958 12.4353 18.4142 12.4865 18.5247C12.5378 18.6353 12.6133 18.7359 12.7087 18.8208C12.8042 18.9058 12.9178 18.9733 13.043 19.0197C13.1681 19.066 13.3025 19.0902 13.4383 19.091H13.4445C13.7178 19.091 13.9799 18.9959 14.1737 18.8266C14.3675 18.6573 14.4772 18.4275 14.4789 18.1873C14.5027 14.8446 17.6016 12.701 19.4283 11.96C22.8737 10.5628 27.13 10.5664 30.5982 11.96C30.8468 12.056 31.1284 12.0623 31.3821 11.9774C31.6359 11.8925 31.8415 11.7234 31.9546 11.5064C32.0677 11.2895 32.0792 11.0421 31.9866 10.8178C31.8941 10.5935 31.7049 10.4101 31.4598 10.3073Z" fill="black"/>
</svg>
